{
  "accessors": [
    {
      "bufferView": 0,
      "componentType": 5126,
      "count": 24,
      "max": [
        0.10134106874465942,
        0.07951979339122772,
        0.10328371077775955
      ],
      "min": [
        -0.10134105384349823,
        -0.523993730545044,
        -0.10522636771202087
      ],
      "type": "VEC3"
    },
    {
      "bufferView": 1,
      "componentType": 5126,
      "count": 24,
      "type": "VEC3"
    },
    {
      "bufferView": 2,
      "componentType": 5126,
      "count": 24,
      "type": "VEC2"
    },
    {
      "bufferView": 3,
      "componentType": 5125,
      "count": 36,
      "type": "SCALAR"
    },
    {
      "bufferView": 4,
      "componentType": 5126,
      "count": 24,
      "max": [
        0.10134129226207733,
        0.10003422200679779,
        0.10432508587837219
      ],
      "min": [
        -0.10231214761734009,
        -0.5031554698944092,
        -0.1048324778676033
      ],
      "type": "VEC3"
    },
    {
      "bufferView": 5,
      "componentType": 5126,
      "count": 24,
      "type": "VEC3"
    },
    {
      "bufferView": 6,
      "componentType": 5126,
      "count": 24,
      "type": "VEC2"
    },
    {
      "bufferView": 7,
      "componentType": 5125,
      "count": 36,
      "type": "SCALAR"
    },
    {
      "bufferView": 8,
      "componentType": 5126,
      "count": 24,
      "max": [
        0.20365343987941742,
        0.5595428347587585,
        0.10596222430467606
      ],
      "min": [
        -0.20235835015773773,
        -0.046560853719711304,
        -0.10546177625656128
      ],
      "type": "VEC3"
    },
    {
      "bufferView": 9,
      "componentType": 5126,
      "count": 24,
      "type": "VEC3"
    },
    {
      "bufferView": 10,
      "componentType": 5126,
      "count": 24,
      "type": "VEC2"
    },
    {
      "bufferView": 11,
      "componentType": 5125,
      "count": 36,
      "type": "SCALAR"
    },
    {
      "bufferView": 12,
      "componentType": 5126,
      "count": 24,
      "max": [
        0.07738181203603745,
        0.07656913250684738,
        0.10298280417919159
      ],
      "min": [
        -0.0754392147064209,
        -0.5318010449409485,
        -0.10228950530290604
      ],
      "type": "VEC3"
    },
    {
      "bufferView": 13,
      "componentType": 5126,
      "count": 24,
      "type": "VEC3"
    },
    {
      "bufferView": 14,
      "componentType": 5126,
      "count": 24,
      "type": "VEC2"
    },
    {
      "bufferView": 15,
      "componentType": 5125,
      "count": 36,
      "type": "SCALAR"
    },
    {
      "bufferView": 16,
      "componentType": 5126,
      "count": 24,
      "max": [
        0.07867661118507385,
        0.08199503272771835,
        0.10311054438352585
      ],
      "min": [
        -0.07479200512170792,
        -0.5237849354743958,
        -0.1024855449795723
      ],
      "type": "VEC3"
    },
    {
      "bufferView": 17,
      "componentType": 5126,
      "count": 24,
      "type": "VEC3"
    },
    {
      "bufferView": 18,
      "componentType": 5126,
      "count": 24,
      "type": "VEC2"
    },
    {
      "bufferView": 19,
      "componentType": 5125,
      "count": 36,
      "type": "SCALAR"
    },
    {
      "bufferView": 20,
      "componentType": 5126,
      "count": 24,
      "max": [
        0.42263931035995483,
        0.8184488415718079,
        0.4158879518508911
      ],
      "min": [
        -0.4206138849258423,
        -0.019403304904699326,
        -0.4287155270576477
      ],
      "type": "VEC3"
    },
    {
      "bufferView": 21,
      "componentType": 5126,
      "count": 24,
      "type": "VEC3"
    },
    {
      "bufferView": 22,
      "componentType": 5126,
      "count": 24,
      "type": "VEC2"
    },
    {
      "bufferView": 23,
      "componentType": 5125,
      "count": 36,
      "type": "SCALAR"
    },
    {
      "bufferView": 24,
      "componentType": 5126,
      "count": 30,
      "max": [
        0.9666666984558105
      ],
      "min": [
        0.0
      ],
      "type": "SCALAR"
    },
    {
      "bufferView": 25,
      "componentType": 5126,
      "count": 30,
      "type": "VEC3"
    },
    {
      "bufferView": 26,
      "componentType": 5126,
      "count": 30,
      "max": [
        0.9666666984558105
      ],
      "min": [
        0.0
      ],
      "type": "SCALAR"
    },
    {
      "bufferView": 27,
      "componentType": 5126,
      "count": 30,
      "type": "VEC3"
    },
    {
      "bufferView": 28,
      "componentType": 5126,
      "count": 30,
      "max": [
        0.9666666984558105
      ],
      "min": [
        0.0
      ],
      "type": "SCALAR"
    },
    {
      "bufferView": 29,
      "componentType": 5126,
      "count": 30,
      "type": "VEC3"
    },
    {
      "bufferView": 30,
      "componentType": 5126,
      "count": 30,
      "max": [
        0.9666666984558105
      ],
      "min": [
        0.0
      ],
      "type": "SCALAR"
    },
    {
      "bufferView": 31,
      "componentType": 5126,
      "count": 30,
      "type": "VEC3"
    },
    {
      "bufferView": 32,
      "componentType": 5126,
      "count": 30,
      "max": [
        0.9666666984558105
      ],
      "min": [
        0.0
      ],
      "type": "SCALAR"
    },
    {
      "bufferView": 33,
      "componentType": 5126,
      "count": 30,
      "type": "VEC3"
    },
    {
      "bufferView": 34,
      "componentType": 5126,
      "count": 30,
      "max": [
        0.9666666984558105
      ],
      "min": [
        0.0
      ],
      "type": "SCALAR"
    },
    {
      "bufferView": 35,
      "componentType": 5126,
      "count": 30,
      "type": "VEC3"
    },
    {
      "bufferView": 36,
      "componentType": 5126,
      "count": 30,
      "max": [
        0.9666666984558105
      ],
      "min": [
        0.0
      ],
      "type": "SCALAR"
    },
    {
      "bufferView": 37,
      "componentType": 5126,
      "count": 30,
      "type": "VEC4"
    },
    {
      "bufferView": 38,
      "componentType": 5126,
      "count": 30,
      "max": [
        0.9666666984558105
      ],
      "min": [
        0.0
      ],
      "type": "SCALAR"
    },
    {
      "bufferView": 39,
      "componentType": 5126,
      "count": 30,
      "type": "VEC4"
    },
    {
      "bufferView": 40,
      "componentType": 5126,
      "count": 30,
      "max": [
        0.9666666984558105
      ],
      "min": [
        0.0
      ],
      "type": "SCALAR"
    },
    {
      "bufferView": 41,
      "componentType": 5126,
      "count": 30,
      "type": "VEC4"
    },
    {
      "bufferView": 42,
      "componentType": 5126,
      "count": 30,
      "max": [
        0.9666666984558105
      ],
      "min": [
        0.0
      ],
      "type": "SCALAR"
    },
    {
      "bufferView": 43,
      "componentType": 5126,
      "count": 30,
      "type": "VEC4"
    },
    {
      "bufferView": 44,
      "componentType": 5126,
      "count": 30,
      "max": [
        0.9666666984558105
      ],
      "min": [
        0.0
      ],
      "type": "SCALAR"
    },
    {
      "bufferView": 45,
      "componentType": 5126,
      "count": 30,
      "type": "VEC4"
    },
    {
      "bufferView": 46,
      "componentType": 5126,
      "count": 30,
      "max": [
        0.9666666984558105
      ],
      "min": [
        0.0
      ],
      "type": "SCALAR"
    },
    {
      "bufferView": 47,
      "componentType": 5126,
      "count": 30,
      "type": "VEC4"
    }
  ],
  "animations": [
    {
      "channels": [
        {
          "sampler": 0,
          "target": {
            "node": 0,
            "path": "translation"
          }
        },
        {
          "sampler": 1,
          "target": {
            "node": 2,
            "path": "translation"
          }
        },
        {
          "sampler": 2,
          "target": {
            "node": 3,
            "path": "translation"
          }
        },
        {
          "sampler": 3,
          "target": {
            "node": 5,
            "path": "translation"
          }
        },
        {
          "sampler": 4,
          "target": {
            "node": 6,
            "path": "translation"
          }
        },
        {
          "sampler": 5,
          "target": {
            "node": 7,
            "path": "translation"
          }
        },
        {
          "sampler": 6,
          "target": {
            "node": 0,
            "path": "rotation"
          }
        },
        {
          "sampler": 7,
          "target": {
            "node": 2,
            "path": "rotation"
          }
        },
        {
          "sampler": 8,
          "target": {
            "node": 3,
            "path": "rotation"
          }
        },
        {
          "sampler": 9,
          "target": {
            "node": 5,
            "path": "rotation"
          }
        },
        {
          "sampler": 10,
          "target": {
            "node": 6,
            "path": "rotation"
          }
        },
        {
          "sampler": 11,
          "target": {
            "node": 7,
            "path": "rotation"
          }
        }
      ],
      "name": "Animation",
      "samplers": [
        {
          "input": 24,
          "interpolation": "LINEAR",
          "output": 25
        },
        {
          "input": 26,
          "interpolation": "LINEAR",
          "output": 27
        },
        {
          "input": 28,
          "interpolation": "LINEAR",
          "output": 29
        },
        {
          "input": 30,
          "interpolation": "LINEAR",
          "output": 31
        },
        {
          "input": 32,
          "interpolation": "LINEAR",
          "output": 33
        },
        {
          "input": 34,
          "interpolation": "LINEAR",
          "output": 35
        },
        {
          "input": 36,
          "interpolation": "LINEAR",
          "output": 37
        },
        {
          "input": 38,
          "interpolation": "LINEAR",
          "output": 39
        },
        {
          "input": 40,
          "interpolation": "LINEAR",
          "output": 41
        },
        {
          "input": 42,
          "interpolation": "LINEAR",
          "output": 43
        },
        {
          "input": 44,
          "interpolation": "LINEAR",
          "output": 45
        },
        {
          "input": 46,
          "interpolation": "LINEAR",
          "output": 47
        }
      ]
    }
  ],
  "asset": {
    "generator": "Prisma3D Pro",
    "version": "2.0"
  },
  "bufferViews": [
    {
      "buffer": 0,
      "byteLength": 288,
      "target": 34962
    },
    {
      "buffer": 1,
      "byteLength": 288,
      "target": 34962
    },
    {
      "buffer": 2,
      "byteLength": 192,
      "target": 34962
    },
    {
      "buffer": 3,
      "byteLength": 144,
      "target": 34963
    },
    {
      "buffer": 4,
      "byteLength": 288,
      "target": 34962
    },
    {
      "buffer": 5,
      "byteLength": 288,
      "target": 34962
    },
    {
      "buffer": 6,
      "byteLength": 192,
      "target": 34962
    },
    {
      "buffer": 7,
      "byteLength": 144,
      "target": 34963
    },
    {
      "buffer": 8,
      "byteLength": 288,
      "target": 34962
    },
    {
      "buffer": 9,
      "byteLength": 288,
      "target": 34962
    },
    {
      "buffer": 10,
      "byteLength": 192,
      "target": 34962
    },
    {
      "buffer": 11,
      "byteLength": 144,
      "target": 34963
    },
    {
      "buffer": 12,
      "byteLength": 288,
      "target": 34962
    },
    {
      "buffer": 13,
      "byteLength": 288,
      "target": 34962
    },
    {
      "buffer": 14,
      "byteLength": 192,
      "target": 34962
    },
    {
      "buffer": 15,
      "byteLength": 144,
      "target": 34963
    },
    {
      "buffer": 16,
      "byteLength": 288,
      "target": 34962
    },
    {
      "buffer": 17,
      "byteLength": 288,
      "target": 34962
    },
    {
      "buffer": 18,
      "byteLength": 192,
      "target": 34962
    },
    {
      "buffer": 19,
      "byteLength": 144,
      "target": 34963
    },
    {
      "buffer": 20,
      "byteLength": 288,
      "target": 34962
    },
    {
      "buffer": 21,
      "byteLength": 288,
      "target": 34962
    },
    {
      "buffer": 22,
      "byteLength": 192,
      "target": 34962
    },
    {
      "buffer": 23,
      "byteLength": 144,
      "target": 34963
    },
    {
      "buffer": 24,
      "byteLength": 120
    },
    {
      "buffer": 25,
      "byteLength": 360
    },
    {
      "buffer": 26,
      "byteLength": 120
    },
    {
      "buffer": 27,
      "byteLength": 360
    },
    {
      "buffer": 28,
      "byteLength": 120
    },
    {
      "buffer": 29,
      "byteLength": 360
    },
    {
      "buffer": 30,
      "byteLength": 120
    },
    {
      "buffer": 31,
      "byteLength": 360
    },
    {
      "buffer": 32,
      "byteLength": 120
    },
    {
      "buffer": 33,
      "byteLength": 360
    },
    {
      "buffer": 34,
      "byteLength": 120
    },
    {
      "buffer": 35,
      "byteLength": 360
    },
    {
      "buffer": 36,
      "byteLength": 120
    },
    {
      "buffer": 37,
      "byteLength": 480
    },
    {
      "buffer": 38,
      "byteLength": 120
    },
    {
      "buffer": 39,
      "byteLength": 480
    },
    {
      "buffer": 40,
      "byteLength": 120
    },
    {
      "buffer": 41,
      "byteLength": 480
    },
    {
      "buffer": 42,
      "byteLength": 120
    },
    {
      "buffer": 43,
      "byteLength": 480
    },
    {
      "buffer": 44,
      "byteLength": 120
    },
    {
      "buffer": 45,
      "byteLength": 480
    },
    {
      "buffer": 46,
      "byteLength": 120
    },
    {
      "buffer": 47,
      "byteLength": 480
    }
  ],
  "buffers": [
    {
      "byteLength": 288,
      "uri": "data:application/octet-stream;base64,"
    },
    {
      "byteLength": 288,
      "uri": "data:application/octet-stream;base64,"
    },
    {
      "byteLength": 192,
      "uri": "data:application/octet-stream;base64,"
    },
    {
      "byteLength": 144,
      "uri": "data:application/octet-stream;base64,"
    },
    {
      "byteLength": 288,
      "uri": "data:application/octet-stream;base64,"
    },
    {
      "byteLength": 288,
      "uri": "data:application/octet-stream;base64,"
    },
    {
      "byteLength": 192,
      "uri": "data:application/octet-stream;base64,"
    },
    {
      "byteLength": 144,
      "uri": "data:application/octet-stream;base64,"
    },
    {
      "byteLength": 288,
      "uri": "data:application/octet-stream;base64,"
    },
    {
      "byteLength": 288,
      "uri": "data:application/octet-stream;base64,"
    },
    {
      "byteLength": 192,
      "uri": "data:application/octet-stream;base64,"
    },
    {
      "byteLength": 144,
      "uri": "data:application/octet-stream;base64,"
    },
    {
      "byteLength": 288,
      "uri": "data:application/octet-stream;base64,"
    },
    {
      "byteLength": 288,
      "uri": "data:application/octet-stream;base64,"
    },
    {
      "byteLength": 192,
      "uri": "data:application/octet-stream;base64,"
    },
    {
      "byteLength": 144,
      "uri": "data:application/octet-stream;base64,"
    },
    {
      "byteLength": 288,
      "uri": "data:application/octet-stream;base64,"
    },
    {
      "byteLength": 288,
      "uri": "data:application/octet-stream;base64,"
    },
    {
      "byteLength": 192,
      "uri": "data:application/octet-stream;base64,"
    },
    {
      "byteLength": 144,
      "uri": "data:application/octet-stream;base64,"
    },
    {
      "byteLength": 288,
      "uri": "data:application/octet-stream;base64,"
    },
    {
      "byteLength": 288,
      "uri": "data:application/octet-stream;base64,"
    },
    {
      "byteLength": 192,
      "uri": "data:application/octet-stream;base64,"
    },
    {
      "byteLength": 144,
      "uri": "data:application/octet-stream;base64,"
    },
    {
      "byteLength": 120,
      "uri": "data:application/octet-stream;base64,"
    },
    {
      "byteLength": 360,
      "uri": "data:application/octet-stream;base64,"
    },
    {
      "byteLength": 120,
      "uri": "data:application/octet-stream;base64,"
    },
    {
      "byteLength": 360,
      "uri": "data:application/octet-stream;base64,"
    },
    {
      "byteLength": 120,
      "uri": "data:application/octet-stream;base64,"
    },
    {
      "byteLength": 360,
      "uri": "data:application/octet-stream;base64,"
    },
    {
      "byteLength": 120,
      "uri": "data:application/octet-stream;base64,"
    },
    {
      "byteLength": 360,
      "uri": "data:application/octet-stream;base64,"
    },
    {
      "byteLength": 120,
      "uri": "data:application/octet-stream;base64,"
    },
    {
      "byteLength": 360,
      "uri": "data:application/octet-stream;base64,"
    },
    {
      "byteLength": 120,
      "uri": "data:application/octet-stream;base64,"
    },
    {
      "byteLength": 360,
      "uri": "data:application/octet-stream;base64,"
    },
    {
      "byteLength": 120,
      "uri": "data:application/octet-stream;base64,"
    },
    {
      "byteLength": 480,
      "uri": "data:application/octet-stream;base64,"
    },
    {
      "byteLength": 120,
      "uri": "data:application/octet-stream;base64,"
    },
    {
      "byteLength": 480,
      "uri": "data:application/octet-stream;base64,"
    },
    {
      "byteLength": 120,
      "uri": "data:application/octet-stream;base64,"
    },
    {
      "byteLength": 480,
      "uri": "data:application/octet-stream;base64,"
    },
    {
      "byteLength": 120,
      "uri": "data:application/octet-stream;base64,"
    },
    {
      "byteLength": 480,
      "uri": "data:application/octet-stream;base64,"
    },
    {
      "byteLength": 120,
      "uri": "data:application/octet-stream;base64,"
    },
    {
      "byteLength": 480,
      "uri": "data:application/octet-stream;base64,"
    },
    {
      "byteLength": 120,
      "uri": "data:application/octet-stream;base64,"
    },
    {
      "byteLength": 480,
      "uri": "data:application/octet-stream;base64,"
    }
  ],
  "images": [
    {
      "name": "+ojo.png",
      "uri": "data:image/png;base64,"
    },
    {
      "name": "+ojo.png",
      "uri": "data:image/png;base64,"
    },
    {
      "name": "+ojo.png",
      "uri": "data:image/png;base64,"
    },
    {
      "name": "+ojo.png",
      "uri": "data:image/png;base64,"
    },
    {
      "name": "+ojo.png",
      "uri": "data:image/png;base64,"
    },
    {
      "name": "+ojo.png",
      "uri": "data:image/png;base64,"
    }
  ],
  "materials": [
    {
      "doubleSided": true,
      "pbrMetallicRoughness": {
        "baseColorTexture": {
          "index": 0
        },
        "metallicFactor": 0.15000000596046448,
        "roughnessFactor": 0.0
      }
    },
    {
      "doubleSided": true,
      "pbrMetallicRoughness": {
        "baseColorTexture": {
          "index": 1
        },
        "metallicFactor": 0.15000000596046448,
        "roughnessFactor": 0.0
      }
    },
    {
      "doubleSided": true,
      "pbrMetallicRoughness": {
        "baseColorTexture": {
          "index": 2
        },
        "metallicFactor": 0.15000000596046448,
        "roughnessFactor": 0.0
      }
    },
    {
      "doubleSided": true,
      "pbrMetallicRoughness": {
        "baseColorTexture": {
          "index": 3
        },
        "metallicFactor": 0.15000000596046448,
        "roughnessFactor": 0.0
      }
    },
    {
      "doubleSided": true,
      "pbrMetallicRoughness": {
        "baseColorTexture": {
          "index": 4
        },
        "metallicFactor": 0.15000000596046448,
        "roughnessFactor": 0.0
      }
    },
    {
      "doubleSided": true,
      "pbrMetallicRoughness": {
        "baseColorTexture": {
          "index": 5
        },
        "metallicFactor": 0.15000000596046448,
        "roughnessFactor": 0.0
      }
    }
  ],
  "meshes": [
    {
      "primitives": [
        {
          "attributes": {
            "NORMAL": 1,
            "POSITION": 0,
            "TEXCOORD_0": 2
          },
          "indices": 3,
          "material": 0,
          "mode": 4
        }
      ]
    },
    {
      "primitives": [
        {
          "attributes": {
            "NORMAL": 5,
            "POSITION": 4,
            "TEXCOORD_0": 6
          },
          "indices": 7,
          "material": 1,
          "mode": 4
        }
      ]
    },
    {
      "primitives": [
        {
          "attributes": {
            "NORMAL": 9,
            "POSITION": 8,
            "TEXCOORD_0": 10
          },
          "indices": 11,
          "material": 2,
          "mode": 4
        }
      ]
    },
    {
      "primitives": [
        {
          "attributes": {
            "NORMAL": 13,
            "POSITION": 12,
            "TEXCOORD_0": 14
          },
          "indices": 15,
          "material": 3,
          "mode": 4
        }
      ]
    },
    {
      "primitives": [
        {
          "attributes": {
            "NORMAL": 17,
            "POSITION": 16,
            "TEXCOORD_0": 18
          },
          "indices": 19,
          "material": 4,
          "mode": 4
        }
      ]
    },
    {
      "primitives": [
        {
          "attributes": {
            "NORMAL": 21,
            "POSITION": 20,
            "TEXCOORD_0": 22
          },
          "indices": 23,
          "material": 5,
          "mode": 4
        }
      ]
    }
  ],
  "nodes": [
    {
      "children": [
        4,
        1
      ],
      "name": "player",
      "rotation": [
        0.0,
        -0.0,
        -0.0,
        1.0
      ],
      "scale": [
        1.0,
        1.0,
        1.0
      ],
      "translation": [
        -0.0,
        0.006549835205078125,
        0.0
      ]
    },
    {
      "children": [
        3,
        2
      ],
      "name": "Legs",
      "rotation": [
        0.0,
        -0.0,
        -0.0,
        1.0
      ],
      "scale": [
        1.0,
        1.0,
        1.0
      ],
      "translation": [
        -0.0009089544182643294,
        0.5485331416130066,
        0.0
      ]
    },
    {
      "mesh": 0,
      "name": "Left_Legs",
      "rotation": [
        -0.20542337000370026,
        3.37897034796697e-08,
        5.707755601491726e-09,
        0.9786732196807861
      ],
      "scale": [
        1.0,
        1.0,
        1.0
      ],
      "translation": [
        0.10360746830701828,
        -0.021387331187725067,
        0.0
      ]
    },
    {
      "mesh": 1,
      "name": "Right_Legs",
      "rotation": [
        0.19073329865932465,
        -3.619685884359569e-08,
        6.530584073516366e-09,
        0.9816418886184692
      ],
      "scale": [
        1.0,
        1.0,
        1.0
      ],
      "translation": [
        -0.09713201224803925,
        -0.037556763738393784,
        -1.7946875985330735e-08
      ]
    },
    {
      "children": [
        7,
        6,
        5
      ],
      "mesh": 2,
      "name": "Body",
      "rotation": [
        0.0,
        -0.0,
        -0.0,
        1.0
      ],
      "scale": [
        1.0,
        1.0,
        1.0
      ],
      "translation": [
        -0.0009089544182643294,
        0.6448799967765808,
        0.0
      ]
    },
    {
      "mesh": 3,
      "name": "Right_Slims_Arms",
      "rotation": [
        -9.557346913879883e-08,
        2.752225292113053e-08,
        -0.9745600819587708,
        0.22412662208080292
      ],
      "scale": [
        1.0,
        1.0,
        1.0
      ],
      "translation": [
        -0.26936912536621094,
        0.48035112023353577,
        0.0
      ]
    },
    {
      "mesh": 4,
      "name": "Left_Slims_Arms",
      "rotation": [
        -8.55035722224784e-08,
        -2.2587265391393885e-08,
        0.9825897216796875,
        0.18578869104385376
      ],
      "scale": [
        1.0,
        1.0,
        1.0
      ],
      "translation": [
        0.28340116143226624,
        0.4819856584072113,
        -5.186106603297276e-15
      ]
    },
    {
      "mesh": 5,
      "name": "Head",
      "rotation": [
        -0.24145595729351044,
        3.4442759755393126e-08,
        6.943341901433087e-09,
        0.9704117774963379
      ],
      "scale": [
        1.0,
        1.0,
        1.0
      ],
      "translation": [
        1.507687169555183e-10,
        0.5702571272850037,
        0.006475467700511217
      ]
    }
  ],
  "scenes": [
    {
      "nodes": [
        0
      ]
    }
  ],
  "textures": [
    {
      "source": 0
    },
    {
      "source": 1
    },
    {
      "source": 2
    },
    {
      "source": 3
    },
    {
      "source": 4
    },
    {
      "source": 5
    }
  ]
}
